<svg version="1.1" id="Layer_1" xmlns="http://www.w3.org/2000/svg" x="0" y="0" viewBox="0 0 183.1 105.5" xml:space="preserve"><style>.st0{fill:#006371}.st1{fill:#691c32}</style><path class="st0" d="M91.2 66.9v-4.5h1.9v-.5h-4.3v.5h1.9v4.5zm8.3 0v-5H99v2.3h-3.1v-2.3h-.5v5h.5v-2.2H99v2.2zm6.4-4.5v-.5h-3.5v5h3.5v-.5h-3v-1.8h2.7v-.4h-2.7v-1.8zm-78.6 8c-.2.2-.3.3-.4.5l-.4.4c-.1.1-.2.1-.2.1s-.2-.1-.6-.4c-.3-.2-.8-.5-1.5-.8-.6-.3-1.5-.5-2.4-.8-1-.2-2.1-.4-3.4-.4-1.4 0-2.7.2-3.8.5-1.1.3-2.2.7-3.1 1.2-.9.5-1.7 1.1-2.4 1.8s-1.2 1.4-1.7 2.1c-.4.6-.7 1.2-1 1.9l-.6 1.8c-.1.6-.2 1.1-.3 1.6-.1.5-.1.9-.1 1.3 0 1.7.3 3.3.9 4.8.6 1.5 1.5 2.7 2.6 3.7s2.5 1.8 4.1 2.4c1.6.6 3.4.9 5.4.9 1.2 0 2.3-.1 3.2-.3.9-.2 1.7-.4 2.4-.7.6-.3 1.1-.5 1.5-.7.3-.2.5-.3.6-.3.1 0 .3.2.6.5s.5.6.8 1h.5l.1-7.1h-.4c-.2.9-.6 1.8-1.1 2.7-.5.9-1.2 1.6-1.9 2.3-.8.7-1.6 1.2-2.6 1.6-1 .4-2 .6-3.1.6-1.4 0-2.7-.3-3.9-.9-1.2-.6-2.2-1.4-3-2.4-.8-1-1.4-2.2-1.9-3.5-.4-1.4-.7-2.8-.7-4.4 0-1.5.2-2.9.6-4.3.4-1.4 1-2.6 1.8-3.7s1.8-2 2.9-2.6c1.2-.7 2.5-1 4-1 1.1 0 2.1.2 3 .6 1 .4 1.8.9 2.6 1.6.8.7 1.4 1.5 2 2.4.6.9 1 1.9 1.3 2.9h.4v-7.2h-.4c-.1-.1-.2.1-.4.3zm19.6 21.8c-.3.1-.5.2-.8.2-.2 0-.4.1-.5.1v.3H55v-.4c-.5 0-.9-.1-1.3-.3-.4-.2-.7-.4-.9-.6-.2-.2-.4-.4-.6-.7-.2-.2-.2-.4-.3-.5-.3-.6-.5-1.1-.7-1.5-.2-.4-.4-1-.7-1.7-.5-1.4-1-2.7-1.5-4.1-.5-1.4-1-2.8-1.6-4.3-.5-1.5-1.1-3-1.7-4.6-.6-1.6-1.2-3.3-1.9-5.1h-.3c-.1.2-.2.3-.4.6-.2.2-.4.5-.6.7-.2.3-.5.5-.8.7-.3.2-.7.4-1 .6l.3.7c-.5 1.2-1.1 2.5-1.6 3.9s-1.2 2.8-1.8 4.1c-.6 1.4-1.2 2.7-1.7 4-.6 1.3-1.1 2.4-1.5 3.5-.5 1.1-.9 1.9-1.3 2.5-.3.6-.6.9-.7 1.1-.1.1-.3.2-.7.5-.4.2-.9.4-1.4.5v.4h6.9v-.3c-.3 0-.6-.1-.9-.1-.3-.1-.6-.1-.9-.3-.3-.1-.5-.3-.7-.5-.2-.2-.3-.4-.3-.7 0-.5.2-1.3.7-2.5.3-.8.6-1.5.9-2.2.3-.7.6-1.5.9-2.3h8.6l.9 2.4c.3.8.5 1.5.7 2.1.2.6.4 1.2.5 1.6.1.4.2.8.2 1 0 .3-.1.5-.3.7-.1.2-.4.4-.6.5zm-9.6-9c.5-1.3 1-2.4 1.4-3.5.4-1.1.8-2.1 1.2-2.9.4-.9.7-1.6.9-2.2.2-.6.4-1 .6-1.3.2.5.4 1.1.7 1.8.3.7.6 1.6 1 2.5.4.9.7 1.8 1.1 2.8.4 1 .7 1.9 1.1 2.9h-8zM76.4 89c-.5-.7-1.1-1.6-1.8-2.5-.7-.9-1.3-1.8-1.8-2.6-.3-.5-.7-.9-1-1.2-.3-.4-.7-.6-1.1-.8v-.1c.7-.2 1.4-.5 2-.9.6-.3 1.2-.8 1.7-1.2.5-.5.9-1 1.2-1.7.3-.6.4-1.3.4-2.1 0-1.3-.3-2.4-.9-3.2-.6-.8-1.3-1.5-2.3-2-.9-.5-1.9-.8-3.1-.9-1.1-.1-2.4-.1-3.8-.1H57v.3c.6.1 1.1.2 1.5.3.4.1.8.3 1.1.7.1.1.2.3.3.6.1.3.1.6.2 1 0 .4.1.7.1 1.1V89c0 .4 0 .7-.1 1 0 .3-.1.6-.1.9-.1.3-.2.5-.3.6-.3.3-.7.6-1.2.8-.5.2-1 .3-1.5.4v.3h10.3v-.3c-.9 0-1.6-.2-2.1-.5s-.8-.6-1-.9c-.2-.3-.3-.7-.4-1.2 0-.5 0-1.1-.1-1.8v-6.2h.7c.2 0 .5 0 .9.1.6.1 1.1.4 1.6.8s1 .9 1.4 1.4c.5.6 1 1.1 1.3 1.6.4.5.7 1 1 1.4.3.5.6 1 1 1.4.3.5.7 1 1.1 1.6.3.5.6.9.8 1.1.2.2.3.4.4.6l.3.3.4.4h6.6v-.3c-1-.2-1.9-.5-2.6-1-.7-.5-1.4-1.3-2.2-2.5zm-8-8.1c-.7.2-1.4.4-2.2.5-.8.1-1.6.1-2.5.1V70.7c0-.1 0-.2.1-.3.2 0 .4 0 .6-.1h1.1c.6 0 1.2.1 1.8.2.6.1 1.1.3 1.6.5 1 .5 1.8 1.2 2.4 2 .5.8.8 1.8.8 2.9 0 .6-.1 1.1-.2 1.7-.2.5-.4 1-.7 1.5-.3.5-.7.9-1.2 1.2-.3.1-.9.4-1.6.6zm35.4-5.3c.6-1.3 1.2-2.8 2-4.4v13.1c0 1.3 0 2.6-.1 4.1 0 .4-.1.9-.1 1.3-.1.4-.2.8-.3 1-.2.5-.6.8-1.3 1.2-.6.3-1.4.5-2.3.6v.4h11.1v-.3c-.5 0-1-.1-1.4-.2-.4-.1-.7-.3-1-.5-.3-.2-.5-.4-.6-.5-.1-.2-.2-.3-.2-.3-.1-.2-.2-.6-.3-1-.1-.4-.1-.8-.1-1.2v-13c0-.8.1-1.5.1-2.3 0-.8.1-1.3.3-1.7.2-.5.5-.9 1-1.2.5-.3 1.1-.5 2-.5v-.3h-6.9c-.1.2-.3.8-.8 1.9-.5 1.1-1.1 2.4-1.8 4.1-.7 1.6-1.5 3.5-2.4 5.5-.9 2-1.8 4.1-2.8 6.1L90.2 70h-6.9v.3c.3 0 .6.1.9.2.4.1.7.3 1 .5.3.2.6.5.8.9.2.4.4.9.4 1.5v9.7c0 1.3-.1 2.3-.1 3.3 0 1.1-.1 2-.2 2.8-.1.8-.3 1.4-.6 1.9s-.7.9-1.1 1.2c-.5.3-1.1.5-1.8.7v.3H91V93c-.9-.1-1.7-.3-2.2-.6-.5-.3-.9-.7-1.2-1.2-.3-.5-.4-1.1-.5-1.9-.1-.7-.1-1.6-.1-2.6V72.2c.1.2.3.7.6 1.4s.7 1.5 1.1 2.5c.5 1 1 2.1 1.5 3.4.6 1.3 1.2 2.6 1.8 4.1.6 1.5 1.3 3 2 4.5.7 1.6 1.4 3.2 2 4.7h.2c0-.1.2-.4.3-.8.2-.4.4-.8.5-1.3.2-.5.4-1 .6-1.4.2-.5.3-.8.5-1 .7-1.6 1.4-3 2-4.4l1.8-3.9c.7-1.8 1.3-3.1 1.9-4.4zM118 71l.3.6c.1.3.1.6.1.9v16.3c0 .4 0 .7-.1 1 0 .3-.1.6-.1.8-.1.2-.1.4-.2.5-.3.4-.7.6-1.2.8-.5.2-1 .3-1.5.4v.3h9.8v-.3c-.5 0-1-.2-1.5-.4-.6-.2-1-.5-1.2-.8-.2-.2-.3-.6-.3-1.2V72.7c0-.6.1-1 .3-1.4.3-.5.7-.9 1.2-1 .5-.2 1-.3 1.5-.4v-.3h-9.6v.3c.6.1 1.1.2 1.5.3.3.2.7.5 1 .8zm27.7-1.1c1 .2 1.8.4 2.4.8.5.4.9.9 1.1 1.5.2.5.3 1.1.3 1.9v13.5l-15.3-17.9h-6.5v.3c.3 0 .7.1 1.1.2.4.1.7.3 1 .5.3.2.6.5.8.9.2.4.4.9.5 1.5v9.5c0 1.3-.1 2.3-.1 3.3 0 1.2-.1 2.3-.2 3.2-.1.9-.3 1.5-.6 2s-.7.8-1.2 1c-.5.2-1 .3-1.5.4v.3h7.9v-.3c-.9-.1-1.6-.3-2.1-.5s-.9-.6-1.1-1.1c-.2-.4-.3-1.1-.4-2-.1-.9-.1-1.9-.1-3V72.3c1.5 1.6 2.8 3.2 4.2 4.7 1.3 1.5 2.7 3.1 4 4.7 1.4 1.6 2.8 3.3 4.3 5 1.5 1.8 3.2 3.7 5 5.8.2.2.4.3.6.3.1 0 .2 0 .2-.1.1-.1.1-.1.1-.2V79.7c0-1.3.1-2.3.1-3.3s.1-1.9.1-2.8c0-.9.1-1.5.3-1.8.3-.6.6-1.1 1.1-1.4.5-.3 1.1-.5 1.9-.6v-.3h-8v.4zm31.5 16.7c-.5.9-1.1 1.7-1.6 2.4s-1 1.2-1.6 1.7c-.5.5-1.1.8-1.7 1-.6.2-1.2.4-1.9.5-.6.1-1.2.1-1.8.2h-1.4c-.9 0-1.7-.1-2.4-.2s-1.2-.3-1.4-.6c-.2-.3-.3-.8-.4-1.4-.1-.6-.1-1.3-.1-2v-5.7c0-.6 0-1 .1-1.3h2.8c.6 0 1.2.2 1.7.4s.9.4 1.2.7c.4.4.8.9 1.1 1.6.4.7.6 1.4.8 2.1h.4V76h-.4c-.1.6-.3 1.1-.4 1.6s-.4.9-.6 1.3c-.3.4-.6.7-1 .9-.4.3-1 .5-1.6.6-.3.1-.6.1-1 .1s-.8.1-1.3.1H163v-8.4c0-1.1.1-1.8.1-2.1.2 0 .6-.1 1-.1h1.4c1.4 0 2.6.1 3.6.2s1.7.3 2 .5c1.5.8 3.2 2.2 4.9 4.4l.3-.2-2.2-5.3h-17.8v.3c.6.1 1.1.2 1.4.3.4.1.7.3 1 .7.1.1.2.3.3.6.1.3.1.6.2 1 0 .4.1.8.1 1.2v15.2c0 .4-.1.7-.1 1-.1.3-.1.6-.2.9l-.3.6c-.3.3-.7.6-1.1.8-.5.2-1 .3-1.5.4v.3h19.7l1.6-6.2-.2-.1z"/><path class="st1" d="M112.7 66.3l-1.3-4.9c0-.1 0-.3.2-.5.2-.1 1.1-.5.8-1.6-.1-.3-.2-.5-.2-.5l-2.9-7.2c1.6-2.2 2.5-4.9 2.5-7.6v-4.6l-1.1.3V44c0 2.3-.7 4.5-1.9 6.4l-.4-1-.1-.3s-.7-1.6-1-3.6v-1.2c.3-2.5 0-4.4 0-4.4-.1-.5-.2-.9-.3-1.4l3.5-1 1.4-.4V16.3c0-3.5-1.4-6.8-3.8-9.3s-5.8-3.8-9.3-3.8h-6.5c-3.5 0-6.8 1.4-9.3 3.8-2.5 2.5-3.8 5.8-3.8 9.3v25.5l1.1-.3V16.3c0-3.2 1.3-6.2 3.5-8.5 2.3-2.3 5.3-3.5 8.5-3.5h6.5c3.2 0 6.2 1.3 8.5 3.5 2.3 2.3 3.5 5.3 3.5 8.5V36l-4 1.1c-.7-3-1.5-6.4-1.8-7.6 0 0 0-.2-.1-.5-.3-.9-.9-2.7-1.9-3.9l-2.7-3.6s-1.3-1.9-1.4-3.2c0 0-.4-3-1.5-4.1-.1-.2-.3-.4-.4-.6 0 0-.2-.3-.7-.6-.3-.2-.6-.4-1.1-.5-.3-.1-.7-.1-1.2-.1l-.3-.2s0-.1-.1-.2-.3-.1-.7.1l-.2-.1s-.1-.1-.2-.1-.3 0-.5.3c0 0-.1 0-.2.1 0 0-.1 0-.2.1-.5.3-1.6.8-2.3 1.5-.2.2-.3.3-.4.5-.5-.1-1.4-.4-2.8-.2-2.3.3-3.2.9-3.2.9s.3.2.9.2c3.2.3 3.7.6 4.7 1.2h.1c-.6 1.1 0 2.2 0 2.2.1 1.1.6.6.6.6l.5 1.8c-.4 3.5.4 3.3.4 3.3-.5 1.2.4 1.9.4 1.9 0 1.5.9 1.9.9 1.9 1.3 4.7 3.7 8.3 5.1 10.1.1.2.4.6.9 1.2L80.1 44c-.7.2-1.1.3-1.1.3.1 3.3 1.5 6.5 3.8 8.9 2.5 2.5 5.8 3.8 9.3 3.8h6.5c3 0 5.8-1 8.1-2.8.7 2.7 1.5 5.9 1.6 6.1.3.5.5.6.9.7.4.1.9 0 1.3 1l5.1 13.1-2.9-8.8zM90.5 13.1c.1-.1.2-.1.3-.2.1 0 .2-.1.3-.1 0 0 .4-.4.7-.6 0 0 .1 0 .1-.1.1 0 .1-.1.2-.1v.1l-1 .9s-.3.2-.1.4l1.6-1.2.1-.1h.2c.1 0 .2 0 .2.1l.3.3.2.2c.1 0 .3.1.4.1h1s.1 0 .2.1c.1 0 .1.1.2.1.3.2.7.5 1.1 1 0 0-.1-.1-.3-.2-.1-.1-.2-.2-.4-.2-.2-.1-.4-.2-.6-.2h-.3s-.1-.1-.2-.1c-.2-.1-.4-.1-.7-.1h-.3c-.1 0-.1 0-.2.1-.1 0-.2.1-.3.2-.2.1-.5.4-.9.7 0 0-.1.1-.1.2v.1h.2s.1 0 .2-.1c.2-.1.4-.2.8-.5h.2c.2 0 .5.1.9.1h.3c.2 0 .3 0 .4-.1l1 .4.2.2c.1 0 .1.1.2.2s.3.2.4.3c.1 0 .1.1.2.1s.2.1.2 0l.2.9c.5 1.3.1 1.6-.1 1.6s-.2.2-.3.4c-.1.1-.2.4-.2.4v-.2c0-.2 0-.5.1-.8v-.1s0-.2-.1-.5c0-.1-.1-.2-.1-.3 0-.1-.1-.1-.1-.2 0 0 0-.1-.1-.1-.1-.1-.3-.3-.5-.3h-.1c-.1 0-.3-.1-.5-.1h-1.1v-.1c0-.1 0-.1-.2-.2 0 0 0-.1-.1-.2-.1-.2-.4-.5-.9-.5H93c-.1 0-.2 0-.3.1-.1 0-.2.1-.4.1 0 0-.8.2-1.1.3 0 0-1.4 0-1.8-.4l-.4-.3v-.1l-.2-.1c.4-.3 1.1-.9 1.7-1.3zm3.3 3.4c-.1 0-.2.1-.2.1h-.2c-.3-.1-.5-.3-.5-.7 0-.3.1-.5.3-.6.1-.1.2-.1.3-.1.3 0 .5.2.6.4v.6c0 .1-.2.2-.3.3zm2.5 21.2c-.4-.5-.7-.9-.7-.9-2.5-3.3-4.2-8.9-4.2-8.9-1.1-.3-1-2.2-1-2.2-.9-1.1.2-2.1.2-2.1.6.4.7-.4.7-.8.1-.4 0-1.3 0-1.3-.7 2.2-1 1.3-1 1.3-.1.6-.2.8-.4.8-.1 0-.3-.1-.3-.2s-.1-.8-.1-1.3.1-1 .1-1l-.3-1.6c.8 1.4 1.1-.2 1.1-.2 1 1 1.5 0 1.5 0 .7 1 1 .4 1 .4 1 .7.8.2.8.2-.1-.2-.2-.3-.3-.4-.3-.5-.8-.6-1-.6-.3.1-.4-.1-.5-.2-.1-.1-.3 0-.4.1-.2.1-.4.4-.6.1-.2-.3-.3-.3-.5-.3s-.4.5-.6.6c-.2.1-.1-.9-.3-.9-.2 0-.1.1-.6.2-.2 0-.3-.1-.4-.3-.4-.7-.2-1.2.1-1.5h.2s.2.1.5.1c.4.1 1 .2 1.5.1.1 0 .3 0 .4-.1l.5-.1s.1 0 .1.1c0 0 .1 0 .2.1h.3s.8.5 1.1.6c.4.2.8.2.8.2.1.1.3.2.6.2h.3c.1 0 .2 0 .5.2l.2.1s.1.2.3.4l.1.1c.1.1.2.1.3.1 0 .1.2.4.2.6 0 .2.1.4 0 .8-.1.2-.2.4-.5.5-.5.1-.5.2-.6.5-.1.2-.1.8-.2 1-.1.2-.5.7-.7.8-.2.2-.7.5-1.1.4-.4-.1-.5-.1-.7 0-.2.1-.3.4-.4.5-.2 0-.3.1-.4.4-.1.3-.2.6-.3.7-.1.1-.2.3-.2.6s.2 1.3.3 1.7c.2.4.1.8.1.8 0 .2 0 .5-.1.7-.1.2-.1.6.2 1.1s0 .1.1.2c.4.8 1.8 3.4 2.6 4l.4.4s.7.6 1.3.7h.1c.2 0 .5.1.6.2.1.1 1.1.8 1.9 1.5l.2.2 1.3 1.3c.3.3.5.6.8.9.2.2.3.4.5.6.5.5.9 1 1.3 1.5.3.4.9 1.2 1.3 1.8.3.5.6 1.7 0 1.8-.4 0-1.3-.5-1.3-.5-.3-.2-.7-.4-1-.7-.9-.7-1.9-1.6-2.6-2.4l-.4-.4-.2-.2-.3-.3-.1-.1-.2-.2c-.2-.2-.4-.4-.5-.6l-.3-.3-.3-.3c-.3-.3-.7-.8-1-1.3zm2.3 18.2h-6.5c-3.2 0-6.2-1.3-8.5-3.5-1.8-1.8-3.2-4.5-3.5-7.2l17.7-4.7c1.2 1.3 2.9 3.1 5.2 4.8.5.4.9.7 1.2 1l.4.3 1.1 3.7s.3 1.2.7 2.7c-2.2 1.9-4.9 2.9-7.8 2.9z"/><path class="st1" d="M93.8 15.5v.1c0 .2-.2.4-.3.3-.1 0-.2-.1-.2-.3v-.1c0-.1 0-.1.1-.1-.2.1-.3.3-.3.5 0 .3.2.5.4.5s.4-.2.4-.5c.1-.2 0-.3-.1-.4zm.8-1s1.8.8 2.4 1.3c0 0 .4.3.1-.2 0-.1-.1-.2-.2-.3-.1-.2-.8-1.3-2.1-1.2v.1s.1.1.7.2c0 0 .2.1.2.2 0 0-.5-.3-1.4-.1h.3z"/><path class="st0" d="M45.5 97.6h.5v4.7h-.5v-4.7zm2.7 0h.5l2.9 3.7v-3.7h.5v4.7h-.4l-3-3.8v3.8h-.5v-4.7zm10.2.5h-1.6v-.5h3.7v.5h-1.6v4.2h-.5v-4.2zm3.9-.5h.5v2.1h2.7v-2.1h.5v4.7h-.5v-2.1h-2.7v2.1h-.5v-4.7zm5.9 0h3.4v.4h-2.9v1.6h2.5v.5h-2.5v1.6h2.9v.5h-3.4v-4.6zm8.2 0h2c.6 0 1 .2 1.3.5.2.2.4.6.4.9 0 .8-.5 1.2-1.3 1.4l1.4 1.9h-.6l-1.4-1.8h-1.3v1.8h-.5v-4.7zm1.9 2.3c.7 0 1.2-.4 1.2-1s-.4-.9-1.2-.9h-1.4v1.9h1.4zm3.8-2.3h.5v4.7h-.5v-4.7zm2.3 0h.6l1.7 4 1.7-4h.6l-2 4.7h-.5l-2.1-4.7zm6.2 0H94v.4h-2.9v1.6h2.5v.5h-2.5v1.6H94v.5h-3.4v-4.6zm5.4 0h2c.6 0 1 .2 1.3.5.2.2.4.6.4.9 0 .8-.5 1.2-1.3 1.4l1.4 1.9h-.6l-1.4-1.8h-1.3v1.8H96v-4.7zm1.9 2.3c.7 0 1.2-.4 1.2-1s-.4-.9-1.2-.9h-1.4v1.9h1.4zm6.6-2.3h1.6c1.5 0 2.5 1 2.5 2.3 0 1.3-1 2.3-2.5 2.3h-1.6v-4.6zm.5.5v3.7h1.1c1.2 0 1.9-.8 1.9-1.8s-.8-1.8-1.9-1.8H105zm5.6-.5h.5v4.7h-.5v-4.7zm2.4 4l.3-.4c.5.4 1 .7 1.6.7.6 0 1-.3 1-.8 0-.4-.2-.7-1.2-.9-1.1-.2-1.6-.6-1.6-1.3 0-.7.6-1.3 1.5-1.3.7 0 1.2.2 1.6.6l-.3.4c-.4-.4-.9-.5-1.3-.5-.6 0-1 .3-1 .8 0 .4.2.7 1.3.9 1 .2 1.5.6 1.5 1.3 0 .8-.7 1.3-1.6 1.3-.6-.1-1.3-.3-1.8-.8zm6.5-3.5H118v-.5h3.7v.5h-1.6v4.2h-.5v-4.2zm4-.5h2c.6 0 1 .2 1.3.5.2.2.4.6.4.9 0 .8-.5 1.2-1.3 1.4l1.4 1.9h-.6l-1.4-1.8H124v1.8h-.5v-4.7zm1.9 2.3c.7 0 1.2-.4 1.2-1s-.4-.9-1.2-.9H124v1.9h1.4zm3.8-2.3h.5v4.7h-.5v-4.7zm2.5 2.3c0-1.3 1-2.4 2.4-2.4.8 0 1.4.3 1.8.7l-.4.4c-.4-.4-.8-.6-1.5-.6-1 0-1.8.8-1.8 1.9 0 1.1.8 1.9 1.8 1.9.6 0 1.1-.2 1.5-.7l.3.3c-.5.5-1 .8-1.9.8-1.2.1-2.2-.9-2.2-2.3zm7.2-1.8h-1.6v-.5h3.7v.5h-1.6v4.2h-.5v-4.2z"/></svg>