<?xml version="1.0" encoding="utf-8"?>
<!-- Generator: Adobe Illustrator 26.0.3, SVG Export Plug-In . SVG Version: 6.00 Build 0)  -->
<svg version="1.1" id="Layer_1" xmlns="http://www.w3.org/2000/svg" xmlns:xlink="http://www.w3.org/1999/xlink" x="0px" y="0px"
	 viewBox="0 0 140 105.1" style="enable-background:new 0 0 140 105.1;" xml:space="preserve">
<style type="text/css">
	.st0{fill:#243746;}
	.st1{fill:#415364;}
	.st2{fill:#DF854F;}
</style>
<g>
	<g>
		<path class="st0" d="M18,72.8c-0.9-0.9-1.9-1.5-3-2c-1.1-0.5-2.4-0.7-3.8-0.7c-1.4,0-2.6,0.2-3.8,0.7c-1.2,0.5-2.2,1.2-3,2
			c-0.9,0.9-1.5,1.9-2,3C2,77,1.8,78.2,1.8,79.6c0,1.4,0.2,2.6,0.7,3.8c0.5,1.2,1.1,2.2,2,3.1c0.9,0.9,1.9,1.5,3,2
			c1.2,0.5,2.4,0.7,3.8,0.7c1.4,0,2.6-0.2,3.8-0.7c1.1-0.5,2.1-1.2,3-2c0.9-0.9,1.5-1.9,2-3.1c0.5-1.2,0.7-2.4,0.7-3.8
			c0-1.4-0.2-2.6-0.7-3.8C19.5,74.6,18.9,73.6,18,72.8z M17.4,83.4c-0.6,1.1-1.5,2-2.5,2.6c-1.1,0.6-2.3,1-3.6,1
			c-1.4,0-2.6-0.3-3.6-1s-1.9-1.5-2.5-2.6c-0.6-1.1-0.9-2.4-0.9-3.8c0-1.4,0.3-2.7,0.9-3.8c0.6-1.1,1.5-2,2.5-2.6
			c1.1-0.6,2.3-1,3.6-1c1.4,0,2.6,0.3,3.6,1c1.1,0.6,1.9,1.5,2.5,2.6c0.6,1.1,0.9,2.4,0.9,3.8C18.3,81,18,82.3,17.4,83.4z"/>
		<path class="st0" d="M37.6,70.9c-1-0.5-2-0.7-3.2-0.7h-2.8h-1h-1.3v18.7h2.3v-7.5h2.8c1.2,0,2.3-0.2,3.2-0.7
			c1-0.5,1.7-1.1,2.3-1.9c0.6-0.8,0.8-1.8,0.8-3c0-1.2-0.3-2.2-0.8-3C39.3,72,38.5,71.4,37.6,70.9z M37.3,78.5
			c-0.8,0.6-1.7,0.9-2.9,0.9h-2.8v-6.9h2.8c1.2,0,2.2,0.3,2.9,0.9c0.8,0.6,1.1,1.4,1.1,2.6C38.4,77,38,77.9,37.3,78.5z"/>
		<polygon class="st0" points="61.8,77.7 51.5,77.7 51.5,70.3 49.2,70.3 49.2,88.9 51.5,88.9 51.5,79.9 61.8,79.9 61.8,88.9 
			64,88.9 64,70.3 61.8,70.3 		"/>
		<polygon class="st0" points="74.9,70.3 73.6,70.3 73.6,88.9 74.9,88.9 75.9,88.9 84.3,88.9 84.3,86.8 75.9,86.8 75.9,79.9 
			83.8,79.9 83.8,77.7 75.9,77.7 75.9,72.4 84.3,72.4 84.3,70.3 75.9,70.3 		"/>
		<polygon class="st0" points="95.9,70.3 93.7,70.3 93.7,88.9 103.3,88.9 103.3,86.8 95.9,86.8 		"/>
		<rect x="111" y="70.3" class="st0" width="2.3" height="18.7"/>
		<path class="st0" d="M135.7,88.9h2.5l-8.7-19.6l-8.7,19.6h2.5l2.4-5.6h7.5L135.7,88.9z M132.4,81.2h-5.7l2.9-6.7L132.4,81.2z"/>
	</g>
	<g>
		<g>
			<path class="st0" d="M50.7,98.6h2.1V99h-1.6v0.7h1.4v0.4h-1.4v0.8h1.6v0.4h-2.1V98.6z"/>
			<path class="st0" d="M54,101l0.3-0.4c0.3,0.2,0.5,0.4,0.9,0.4c0.3,0,0.5-0.1,0.5-0.4v0c0-0.2-0.1-0.3-0.6-0.4
				c-0.6-0.1-0.9-0.3-0.9-0.8v0c0-0.5,0.4-0.8,1-0.8c0.4,0,0.7,0.1,1,0.4l-0.3,0.4c-0.3-0.2-0.5-0.3-0.8-0.3c-0.3,0-0.5,0.1-0.5,0.3
				v0c0,0.2,0.1,0.3,0.7,0.4c0.6,0.1,0.9,0.4,0.9,0.8v0c0,0.5-0.4,0.8-1,0.8C54.8,101.5,54.4,101.3,54,101z"/>
			<path class="st0" d="M58.2,99h-0.9v-0.5h2.3V99h-0.9v2.4h-0.5V99z"/>
			<path class="st0" d="M61,98.6H62c0.9,0,1.5,0.6,1.5,1.4v0c0,0.8-0.6,1.4-1.5,1.4H61V98.6z M61.5,99v1.9H62c0.6,0,1-0.4,1-1v0
				c0-0.6-0.4-1-1-1H61.5z"/>
		</g>
		<g>
			<path class="st0" d="M76.8,101l1-0.8c0.4-0.3,0.5-0.5,0.5-0.8c0-0.3-0.2-0.4-0.5-0.4s-0.4,0.1-0.6,0.4l-0.4-0.3
				c0.3-0.4,0.5-0.6,1-0.6c0.6,0,0.9,0.3,0.9,0.8v0c0,0.4-0.2,0.7-0.7,1.1l-0.6,0.5h1.3v0.4h-2V101z"/>
			<path class="st0" d="M80.1,100L80.1,100c0-0.8,0.5-1.5,1.2-1.5c0.7,0,1.2,0.6,1.2,1.5v0c0,0.8-0.5,1.5-1.2,1.5
				C80.6,101.5,80.1,100.8,80.1,100z M82,100L82,100c0-0.6-0.3-1-0.7-1c-0.4,0-0.7,0.4-0.7,1v0c0,0.6,0.3,1,0.7,1
				C81.8,101,82,100.6,82,100z"/>
			<path class="st0" d="M83.7,101l1-0.8c0.4-0.3,0.5-0.5,0.5-0.8c0-0.3-0.2-0.4-0.5-0.4c-0.3,0-0.4,0.1-0.6,0.4l-0.4-0.3
				c0.3-0.4,0.5-0.6,1-0.6c0.6,0,0.9,0.3,0.9,0.8v0c0,0.4-0.2,0.7-0.7,1.1l-0.6,0.5h1.3v0.4h-2V101z"/>
			<path class="st0" d="M87,101l1-0.8c0.4-0.3,0.5-0.5,0.5-0.8c0-0.3-0.2-0.4-0.5-0.4c-0.3,0-0.4,0.1-0.6,0.4l-0.4-0.3
				c0.3-0.4,0.5-0.6,1-0.6c0.6,0,0.9,0.3,0.9,0.8v0c0,0.4-0.2,0.7-0.7,1.1l-0.6,0.5h1.3v0.4h-2V101z"/>
		</g>
		<polygon class="st0" points="69.2,103.8 68.9,103.6 71.7,95.9 72,96.1 		"/>
	</g>
	<g>
		<polygon class="st1" points="54.6,50.7 74.9,59.7 80.6,53 		"/>
		<polygon class="st1" points="78.6,31.3 93.2,35.3 87.5,44.3 		"/>
		<g>
			<polygon class="st0" points="59.1,39.1 59,39.3 67.4,51.5 67.6,51.5 			"/>
			<polygon class="st0" points="61.1,33.8 61,34.1 73.3,52 73.6,52 			"/>
			<polygon class="st0" points="59.3,38.4 59.3,38.6 68.1,51.5 68.4,51.6 			"/>
			<polygon class="st0" points="58.6,40.4 58.5,40.6 65.9,51.3 66.2,51.4 			"/>
			<polygon class="st0" points="58.1,41.7 58,41.9 64.4,51.2 64.7,51.2 			"/>
			<polygon class="st0" points="57.8,42.3 57.8,42.5 63.7,51.1 63.9,51.2 			"/>
			<polygon class="st0" points="58.3,41 58.3,41.2 65.2,51.3 65.4,51.3 			"/>
			<polygon class="st0" points="60.6,35.2 60.5,35.4 71.8,51.9 72.1,51.9 			"/>
			<polygon class="st0" points="60.8,34.5 60.8,34.7 72.6,51.9 72.8,52 			"/>
			<polygon class="st0" points="60.3,35.8 60.3,36 71.1,51.8 71.4,51.8 			"/>
			<polygon class="st0" points="60.1,36.5 60,36.7 70.4,51.7 70.6,51.8 			"/>
			<polygon class="st0" points="59.6,37.8 59.5,38 68.9,51.6 69.1,51.6 			"/>
			<polygon class="st0" points="59.8,37.1 59.8,37.3 69.6,51.7 69.9,51.7 			"/>
			<polygon class="st0" points="58.8,39.7 58.8,39.9 66.6,51.4 66.9,51.4 			"/>
			<polygon class="st0" points="56.1,46.9 56,47.1 58.5,50.7 58.7,50.7 			"/>
			<polygon class="st0" points="55.6,48.2 55.5,48.4 57,50.6 57.2,50.6 			"/>
			<polygon class="st0" points="55.8,47.5 55.8,47.8 57.7,50.6 58,50.7 			"/>
			<polygon class="st0" points="55.3,48.8 55.3,49.1 56.2,50.5 56.5,50.5 			"/>
			<polygon class="st0" points="54.8,50.1 54.8,50.4 55,50.4 			"/>
			<polygon class="st0" points="55.1,49.5 55,49.7 55.5,50.4 55.8,50.5 			"/>
			<polygon class="st0" points="56.3,46.2 56.3,46.5 59.2,50.8 59.5,50.8 			"/>
			<polygon class="st0" points="57.1,44.3 57,44.5 61.4,51 61.7,51 			"/>
			<polygon class="st0" points="57.6,43 57.5,43.2 62.9,51.1 63.2,51.1 			"/>
			<polygon class="st0" points="57.3,43.6 57.3,43.9 62.2,51 62.4,51 			"/>
			<polygon class="st0" points="56.8,44.9 56.8,45.2 60.7,50.9 61,50.9 			"/>
			<polygon class="st0" points="56.6,45.6 56.5,45.8 60,50.8 60.2,50.8 			"/>
			<polygon class="st0" points="68.4,29.3 68.2,29.3 84.5,53 84.7,53 			"/>
			<polygon class="st0" points="70.6,28.3 70.4,28.4 87.5,53.2 87.7,53.3 			"/>
			<polygon class="st0" points="67.9,29.5 67.7,29.6 83.7,52.9 84,52.9 			"/>
			<polygon class="st0" points="71.7,27.9 71.5,28 88.9,53.4 89.2,53.4 			"/>
			<polygon class="st0" points="70,28.6 69.8,28.7 86.7,53.2 87,53.2 			"/>
			<polygon class="st0" points="69,29 68.8,29.1 85.2,53 85.5,53.1 			"/>
			<polygon class="st0" points="69.5,28.8 69.3,28.9 86,53.1 86.2,53.1 			"/>
			<polygon class="st0" points="71.1,28.1 70.9,28.2 88.2,53.3 88.5,53.3 			"/>
			<polygon class="st0" points="73.8,27 73.6,27 91.9,53.6 92.2,53.6 			"/>
			<polygon class="st0" points="74.4,26.7 74.2,26.8 92.7,53.7 92.9,53.7 			"/>
			<polygon class="st0" points="74.9,26.5 74.7,26.6 93.4,53.7 93.7,53.8 			"/>
			<polygon class="st0" points="72.7,27.4 72.5,27.5 90.4,53.5 90.7,53.5 			"/>
			<polygon class="st0" points="73.3,27.2 73.1,27.3 91.2,53.6 91.4,53.6 			"/>
			<polygon class="st0" points="72.2,27.7 72,27.7 89.7,53.4 89.9,53.4 			"/>
			<polygon class="st0" points="65.7,30.4 65.5,30.5 80.8,52.6 81,52.7 			"/>
			<polygon class="st0" points="63,31.6 62.8,31.6 77,52.3 77.3,52.3 			"/>
			<polygon class="st0" points="62.5,31.8 62.3,31.9 76.3,52.3 76.6,52.3 			"/>
			<polygon class="st0" points="63.5,31.3 63.4,31.4 77.8,52.4 78,52.4 			"/>
			<polygon class="st0" points="61.6,32.5 61.5,32.8 74.8,52.1 75.1,52.1 			"/>
			<polygon class="st0" points="64.1,31.1 63.9,31.2 78.5,52.4 78.8,52.5 			"/>
			<polygon class="st0" points="61.9,32 61.8,32.1 61.8,32.1 75.6,52.2 75.8,52.2 			"/>
			<polygon class="st0" points="65.2,30.6 65,30.7 80,52.6 80.3,52.6 			"/>
			<polygon class="st0" points="66.3,30.2 66.1,30.3 81.5,52.7 81.8,52.7 			"/>
			<polygon class="st0" points="64.6,30.9 64.4,31 79.3,52.5 79.5,52.5 			"/>
			<polygon class="st0" points="66.8,30 66.6,30 82.3,52.8 82.5,52.8 			"/>
			<polygon class="st0" points="67.3,29.7 67.1,29.8 83,52.8 83.3,52.9 			"/>
			<polygon class="st0" points="61.3,33.2 61.3,33.4 74.1,52.1 74.3,52.1 			"/>
		</g>
		<polygon class="st0" points="66.2,6.2 46.8,31.5 54.5,50.1 69.7,10.2 		"/>
		<g>
			<polygon class="st0" points="58.6,5.4 58.5,5.5 62.5,10.2 62.7,10.1 			"/>
			<polygon class="st0" points="58.6,8.9 58.7,9.4 61.1,12.1 61.2,11.9 			"/>
			<polygon class="st0" points="58.2,5.8 58.1,5.9 62.2,10.7 62.3,10.5 			"/>
			<polygon class="st0" points="58,6.5 58.1,6.9 61.8,11.2 61.9,11 			"/>
			<polygon class="st0" points="58.3,7.7 58.4,8.1 61.5,11.6 61.6,11.5 			"/>
			<polygon class="st0" points="59.6,12.6 59.7,13.1 60,13.5 60.2,13.3 			"/>
			<polygon class="st0" points="58.9,10.2 59.1,10.6 60.7,12.6 60.9,12.4 			"/>
			<polygon class="st0" points="59.3,11.4 59.4,11.8 60.4,13 60.5,12.9 			"/>
			<polygon class="st0" points="61.2,3 61,3.2 64.7,7.4 64.8,7.3 			"/>
			<polygon class="st0" points="61.6,2.7 61.4,2.8 65.1,7 65.2,6.8 			"/>
			<polygon class="st0" points="60.7,3.4 60.6,3.6 64.3,7.9 64.5,7.8 			"/>
			<polygon class="st0" points="62,2.3 61.9,2.4 65.4,6.5 65.5,6.4 			"/>
			<polygon class="st0" points="62.4,1.9 62.3,2 65.8,6.1 65.9,5.9 			"/>
			<polygon class="st0" points="59.9,4.2 59.8,4.4 63.6,8.8 63.7,8.7 			"/>
			<polygon class="st0" points="59.5,4.6 59.3,4.8 63.3,9.3 63.4,9.1 			"/>
			<polygon class="st0" points="60.3,3.8 60.2,4 64,8.4 64.1,8.2 			"/>
			<polygon class="st0" points="59.1,5 58.9,5.2 62.9,9.8 63,9.6 			"/>
		</g>
		<polygon class="st2" points="49.1,13.6 53.5,9.6 50.8,7.6 		"/>
		<polygon class="st0" points="53.7,9.3 62.1,1.6 52.7,1.3 51,7.2 		"/>
	</g>
</g>
</svg>
