<?xml version="1.0" encoding="utf-8"?>
<!-- Generator: Adobe Illustrator 26.0.0, SVG Export Plug-In . SVG Version: 6.00 Build 0)  -->
<svg version="1.1" id="Layer_1" xmlns="http://www.w3.org/2000/svg" xmlns:xlink="http://www.w3.org/1999/xlink" x="0px" y="0px"
	 viewBox="0 0 183.1 105.5" style="enable-background:new 0 0 183.1 105.5;" xml:space="preserve">
<style type="text/css">
	.st0{fill:#006371;}
	.st1{fill:#691C32;}
</style>
<g>
	<g>
		<g>
			<polygon class="st0" points="91.2,66.9 91.2,62.4 93.1,62.4 93.1,61.9 88.8,61.9 88.8,62.4 90.7,62.4 90.7,66.9 			"/>
			<polygon class="st0" points="99.5,66.9 99.5,61.9 99,61.9 99,64.2 95.9,64.2 95.9,61.9 95.4,61.9 95.4,66.9 95.9,66.9 95.9,64.7 
				99,64.7 99,66.9 			"/>
			<polygon class="st0" points="105.9,62.4 105.9,61.9 102.4,61.9 102.4,66.9 105.9,66.9 105.9,66.4 102.9,66.4 102.9,64.6 
				105.6,64.6 105.6,64.2 102.9,64.2 102.9,62.4 			"/>
			<path class="st0" d="M27.3,70.4c-0.2,0.2-0.3,0.3-0.4,0.5c-0.1,0.1-0.3,0.3-0.4,0.4c-0.1,0.1-0.2,0.1-0.2,0.1
				c0,0-0.2-0.1-0.6-0.4c-0.3-0.2-0.8-0.5-1.5-0.8c-0.6-0.3-1.5-0.5-2.4-0.8c-1-0.2-2.1-0.4-3.4-0.4c-1.4,0-2.7,0.2-3.8,0.5
				c-1.1,0.3-2.2,0.7-3.1,1.2c-0.9,0.5-1.7,1.1-2.4,1.8c-0.7,0.7-1.2,1.4-1.7,2.1c-0.4,0.6-0.7,1.2-1,1.9c-0.2,0.6-0.4,1.2-0.6,1.8
				c-0.1,0.6-0.2,1.1-0.3,1.6c-0.1,0.5-0.1,0.9-0.1,1.3c0,1.7,0.3,3.3,0.9,4.8c0.6,1.5,1.5,2.7,2.6,3.7c1.1,1,2.5,1.8,4.1,2.4
				c1.6,0.6,3.4,0.9,5.4,0.9c1.2,0,2.3-0.1,3.2-0.3c0.9-0.2,1.7-0.4,2.4-0.7c0.6-0.3,1.1-0.5,1.5-0.7c0.3-0.2,0.5-0.3,0.6-0.3
				c0.1,0,0.3,0.2,0.6,0.5c0.3,0.3,0.5,0.6,0.8,1H28l0.1-7.1h-0.4c-0.2,0.9-0.6,1.8-1.1,2.7c-0.5,0.9-1.2,1.6-1.9,2.3
				c-0.8,0.7-1.6,1.2-2.6,1.6c-1,0.4-2,0.6-3.1,0.6c-1.4,0-2.7-0.3-3.9-0.9c-1.2-0.6-2.2-1.4-3-2.4c-0.8-1-1.4-2.2-1.9-3.5
				c-0.4-1.4-0.7-2.8-0.7-4.4c0-1.5,0.2-2.9,0.6-4.3c0.4-1.4,1-2.6,1.8-3.7c0.8-1.1,1.8-2,2.9-2.6c1.2-0.7,2.5-1,4-1
				c1.1,0,2.1,0.2,3,0.6c1,0.4,1.8,0.9,2.6,1.6c0.8,0.7,1.4,1.5,2,2.4c0.6,0.9,1,1.9,1.3,2.9l0.4,0v-7.2h-0.4
				C27.6,70,27.5,70.2,27.3,70.4z"/>
			<path class="st0" d="M46.9,92.2c-0.3,0.1-0.5,0.2-0.8,0.2c-0.2,0-0.4,0.1-0.5,0.1v0.3H55v-0.4c-0.5,0-0.9-0.1-1.3-0.3
				c-0.4-0.2-0.7-0.4-0.9-0.6c-0.2-0.2-0.4-0.4-0.6-0.7c-0.2-0.2-0.2-0.4-0.3-0.5c-0.3-0.6-0.5-1.1-0.7-1.5c-0.2-0.4-0.4-1-0.7-1.7
				c-0.5-1.4-1-2.7-1.5-4.1c-0.5-1.4-1-2.8-1.6-4.3c-0.5-1.5-1.1-3-1.7-4.6c-0.6-1.6-1.2-3.3-1.9-5.1h-0.3c-0.1,0.2-0.2,0.3-0.4,0.6
				c-0.2,0.2-0.4,0.5-0.6,0.7c-0.2,0.3-0.5,0.5-0.8,0.7c-0.3,0.2-0.7,0.4-1,0.6l0.3,0.7c-0.5,1.2-1.1,2.5-1.6,3.9s-1.2,2.8-1.8,4.1
				c-0.6,1.4-1.2,2.7-1.7,4c-0.6,1.3-1.1,2.4-1.5,3.5c-0.5,1.1-0.9,1.9-1.3,2.5c-0.3,0.6-0.6,0.9-0.7,1.1c-0.1,0.1-0.3,0.2-0.7,0.5
				c-0.4,0.2-0.9,0.4-1.4,0.5v0.4h6.9v-0.3c-0.3,0-0.6-0.1-0.9-0.1c-0.3-0.1-0.6-0.1-0.9-0.3c-0.3-0.1-0.5-0.3-0.7-0.5
				c-0.2-0.2-0.3-0.4-0.3-0.7c0-0.5,0.2-1.3,0.7-2.5c0.3-0.8,0.6-1.5,0.9-2.2c0.3-0.7,0.6-1.5,0.9-2.3h8.6c0.3,0.8,0.6,1.6,0.9,2.4
				c0.3,0.8,0.5,1.5,0.7,2.1c0.2,0.6,0.4,1.2,0.5,1.6c0.1,0.4,0.2,0.8,0.2,1c0,0.3-0.1,0.5-0.3,0.7C47.4,91.9,47.1,92.1,46.9,92.2z
				 M37.3,83.2c0.5-1.3,1-2.4,1.4-3.5c0.4-1.1,0.8-2.1,1.2-2.9c0.4-0.9,0.7-1.6,0.9-2.2c0.2-0.6,0.4-1,0.6-1.3
				c0.2,0.5,0.4,1.1,0.7,1.8c0.3,0.7,0.6,1.6,1,2.5c0.4,0.9,0.7,1.8,1.1,2.8c0.4,1,0.7,1.9,1.1,2.9H37.3z"/>
			<path class="st0" d="M76.4,89c-0.5-0.7-1.1-1.6-1.8-2.5c-0.7-0.9-1.3-1.8-1.8-2.6c-0.3-0.5-0.7-0.9-1-1.2
				c-0.3-0.4-0.7-0.6-1.1-0.8v-0.1c0.7-0.2,1.4-0.5,2-0.9c0.6-0.3,1.2-0.8,1.7-1.2c0.5-0.5,0.9-1,1.2-1.7c0.3-0.6,0.4-1.3,0.4-2.1
				c0-1.3-0.3-2.4-0.9-3.2c-0.6-0.8-1.3-1.5-2.3-2c-0.9-0.5-1.9-0.8-3.1-0.9c-1.1-0.1-2.4-0.1-3.8-0.1c-0.6,0-1.3,0-2.3,0
				c-0.9,0-1.8,0-2.8,0c-0.9,0-1.8,0-2.5,0c-0.7,0-1.2,0-1.3,0v0.3c0.6,0.1,1.1,0.2,1.5,0.3c0.4,0.1,0.8,0.3,1.1,0.7
				c0.1,0.1,0.2,0.3,0.3,0.6c0.1,0.3,0.1,0.6,0.2,1c0,0.4,0.1,0.7,0.1,1.1c0,0.4,0,0.8,0,1.2v6.3c0,0.6,0,1.2,0,1.9
				c0,0.6,0,1.3,0,1.9c0,0.6,0,1.2,0,1.7c0,0.5,0,0.9,0,1.2c0,0.3,0,0.7,0,1.1c0,0.4,0,0.7-0.1,1c0,0.3-0.1,0.6-0.1,0.9
				c-0.1,0.3-0.2,0.5-0.3,0.6c-0.3,0.3-0.7,0.6-1.2,0.8c-0.5,0.2-1,0.3-1.5,0.4v0.3h10.3v-0.3c-0.9,0-1.6-0.2-2.1-0.5
				c-0.5-0.3-0.8-0.6-1-0.9c-0.2-0.3-0.3-0.7-0.4-1.2c0-0.5,0-1.1-0.1-1.8c0-0.7,0-1.6,0-2.6c0-1,0-2.2,0-3.6c0.3,0,0.5,0,0.7,0
				c0.2,0,0.5,0,0.9,0.1c0.6,0.1,1.1,0.4,1.6,0.8c0.5,0.4,1,0.9,1.4,1.4c0.5,0.6,1,1.1,1.3,1.6c0.4,0.5,0.7,1,1,1.4
				c0.3,0.5,0.6,1,1,1.4c0.3,0.5,0.7,1,1.1,1.6c0.3,0.5,0.6,0.9,0.8,1.1c0.2,0.2,0.3,0.4,0.4,0.6c0.1,0.1,0.2,0.2,0.3,0.3
				c0.1,0.1,0.2,0.2,0.4,0.4h6.6v-0.3c-1-0.2-1.9-0.5-2.6-1C77.9,91,77.2,90.2,76.4,89z M68.4,80.9c-0.7,0.2-1.4,0.4-2.2,0.5
				c-0.8,0.1-1.6,0.1-2.5,0.1c0-0.2,0-0.6,0-1.2c0-0.7,0-1.4,0-2.3c0-0.9,0-1.8,0-2.7c0-0.9,0-1.8,0-2.5c0-0.5,0-0.9,0-1.1
				c0-0.3,0-0.5,0-0.6c0-0.2,0-0.3,0-0.4c0-0.1,0-0.2,0.1-0.3c0.2,0,0.4,0,0.6-0.1c0.3,0,0.6,0,1.1,0c0.6,0,1.2,0.1,1.8,0.2
				c0.6,0.1,1.1,0.3,1.6,0.5c1,0.5,1.8,1.2,2.4,2c0.5,0.8,0.8,1.8,0.8,2.9c0,0.6-0.1,1.1-0.2,1.7c-0.2,0.5-0.4,1-0.7,1.5
				c-0.3,0.5-0.7,0.9-1.2,1.2C69.7,80.4,69.1,80.7,68.4,80.9z"/>
			<path class="st0" d="M103.8,75.6c0.6-1.3,1.2-2.8,2-4.4v9.1c0,1.4,0,2.7,0,4c0,1.3,0,2.6-0.1,4.1c0,0.4-0.1,0.9-0.1,1.3
				c-0.1,0.4-0.2,0.8-0.3,1c-0.2,0.5-0.6,0.8-1.3,1.2c-0.6,0.3-1.4,0.5-2.3,0.6v0.4h11.1v-0.3c-0.5,0-1-0.1-1.4-0.2
				c-0.4-0.1-0.7-0.3-1-0.5c-0.3-0.2-0.5-0.4-0.6-0.5c-0.1-0.2-0.2-0.3-0.2-0.3c-0.1-0.2-0.2-0.6-0.3-1c-0.1-0.4-0.1-0.8-0.1-1.2
				c0-1.3,0-2.5,0-3.6c0-1.2,0-2.3,0-3.5c0-1,0-2,0-2.9c0-1,0-2,0-3c0-0.8,0.1-1.5,0.1-2.3c0-0.8,0.1-1.3,0.3-1.7
				c0.2-0.5,0.5-0.9,1-1.2c0.5-0.3,1.1-0.5,2-0.5v-0.3h-6.9c-0.1,0.2-0.3,0.8-0.8,1.9c-0.5,1.1-1.1,2.4-1.8,4.1
				c-0.7,1.6-1.5,3.5-2.4,5.5c-0.9,2-1.8,4.1-2.8,6.1l-7.7-17.5h-6.9v0.3c0.3,0,0.6,0.1,0.9,0.2c0.4,0.1,0.7,0.3,1,0.5
				c0.3,0.2,0.6,0.5,0.8,0.9c0.2,0.4,0.4,0.9,0.4,1.5c0,0.6,0,1.2,0,1.6c0,0.4,0,0.8,0,1.3c0,0.4,0,0.8,0,1.2c0,0.4,0,1,0,1.6
				c0,1.4,0,2.8,0,4c0,1.3-0.1,2.3-0.1,3.3c0,1.1-0.1,2-0.2,2.8c-0.1,0.8-0.3,1.4-0.6,1.9c-0.3,0.5-0.7,0.9-1.1,1.2
				c-0.5,0.3-1.1,0.5-1.8,0.7v0.3H91v-0.3c-0.9-0.1-1.7-0.3-2.2-0.6c-0.5-0.3-0.9-0.7-1.2-1.2c-0.3-0.5-0.4-1.1-0.5-1.9
				c-0.1-0.7-0.1-1.6-0.1-2.6c0-1.6,0-2.9,0-4.1c0-1.2,0-2.3,0-3.4c0-1.1,0-2.1,0-3.2c0-1.1,0-2.3,0-3.8c0.1,0.2,0.3,0.7,0.6,1.4
				c0.3,0.7,0.7,1.5,1.1,2.5c0.5,1,1,2.1,1.5,3.4c0.6,1.3,1.2,2.6,1.8,4.1c0.6,1.5,1.3,3,2,4.5c0.7,1.6,1.4,3.2,2,4.7h0.2
				c0-0.1,0.2-0.4,0.3-0.8c0.2-0.4,0.4-0.8,0.5-1.3c0.2-0.5,0.4-1,0.6-1.4c0.2-0.5,0.3-0.8,0.5-1c0.7-1.6,1.4-3,2-4.4
				c0.6-1.3,1.2-2.6,1.8-3.9C102.6,78.2,103.2,76.9,103.8,75.6z"/>
			<path class="st0" d="M118,71c0.1,0.2,0.2,0.4,0.3,0.6c0.1,0.3,0.1,0.6,0.1,0.9c0,0.3,0,0.7,0,1.1s0,0.8,0,1.2v6.3
				c0,0.6,0,1.2,0,1.9c0,0.6,0,1.3,0,1.9c0,0.6,0,1.2,0,1.7c0,0.5,0,0.9,0,1.2c0,0.3,0,0.7,0,1c0,0.4,0,0.7-0.1,1
				c0,0.3-0.1,0.6-0.1,0.8c-0.1,0.2-0.1,0.4-0.2,0.5c-0.3,0.4-0.7,0.6-1.2,0.8c-0.5,0.2-1,0.3-1.5,0.4v0.3h9.8v-0.3
				c-0.5,0-1-0.2-1.5-0.4c-0.6-0.2-1-0.5-1.2-0.8c-0.2-0.2-0.3-0.6-0.3-1.2c0-0.6,0-1.2,0-1.8V81c0-0.7,0-1.3,0-1.8
				c0-0.6,0-1.1,0-1.7c0-0.5,0-1.1,0-1.6c0-0.5,0-1.1,0-1.6c0-0.5,0-1,0-1.6c0-0.6,0.1-1,0.3-1.4c0.3-0.5,0.7-0.9,1.2-1
				c0.5-0.2,1-0.3,1.5-0.4v-0.3h-9.6v0.3c0.6,0.1,1.1,0.2,1.5,0.3C117.3,70.4,117.7,70.7,118,71z"/>
			<path class="st0" d="M145.7,69.9c1,0.2,1.8,0.4,2.4,0.8c0.5,0.4,0.9,0.9,1.1,1.5c0.2,0.5,0.3,1.1,0.3,1.9c0,0.8,0,1.6,0,2.5v11
				l-15.3-17.9h-6.5v0.3c0.3,0,0.7,0.1,1.1,0.2c0.4,0.1,0.7,0.3,1,0.5c0.3,0.2,0.6,0.5,0.8,0.9c0.2,0.4,0.4,0.9,0.5,1.5
				c0,0.6,0,1.2,0,1.6c0,0.4,0,0.8,0,1.2c0,0.4,0,0.8,0,1.2c0,0.4,0,0.9,0,1.5c0,1.4,0,2.8,0,4c0,1.3-0.1,2.3-0.1,3.3
				c0,1.2-0.1,2.3-0.2,3.2c-0.1,0.9-0.3,1.5-0.6,2c-0.3,0.5-0.7,0.8-1.2,1c-0.5,0.2-1,0.3-1.5,0.4v0.3h7.9v-0.3
				c-0.9-0.1-1.6-0.3-2.1-0.5c-0.5-0.2-0.9-0.6-1.1-1.1c-0.2-0.4-0.3-1.1-0.4-2c-0.1-0.9-0.1-1.9-0.1-3V72.3
				c1.5,1.6,2.8,3.2,4.2,4.7c1.3,1.5,2.7,3.1,4,4.7c1.4,1.6,2.8,3.3,4.3,5c1.5,1.8,3.2,3.7,5,5.8c0.2,0.2,0.4,0.3,0.6,0.3
				c0.1,0,0.2,0,0.2-0.1c0.1-0.1,0.1-0.1,0.1-0.2c0-0.6,0-1.3,0-2.1c0-0.8,0-1.6,0-2.3c0-0.8,0-1.6,0-2.3c0-0.8,0-1.5,0-2.1
				c0-1.4,0-2.8,0-4c0-1.3,0.1-2.3,0.1-3.3c0-1,0.1-1.9,0.1-2.8c0-0.9,0.1-1.5,0.3-1.8c0.3-0.6,0.6-1.1,1.1-1.4
				c0.5-0.3,1.1-0.5,1.9-0.6v-0.3h-8V69.9z"/>
			<path class="st0" d="M177.2,86.6c-0.5,0.9-1.1,1.7-1.6,2.4c-0.5,0.7-1,1.2-1.6,1.7c-0.5,0.5-1.1,0.8-1.7,1
				c-0.6,0.2-1.2,0.4-1.9,0.5c-0.6,0.1-1.2,0.1-1.8,0.2c-0.6,0-1,0-1.4,0c-0.9,0-1.7-0.1-2.4-0.2c-0.7-0.1-1.2-0.3-1.4-0.6
				c-0.2-0.3-0.3-0.8-0.4-1.4c-0.1-0.6-0.1-1.3-0.1-2c0-0.2,0-0.5,0-0.8c0-0.3,0-0.6,0-1c0-0.4,0-0.7,0-1.1c0-0.4,0-0.7,0-1
				c0-0.6,0-1.2,0-1.8s0-1,0.1-1.3c0.3,0,0.6,0,0.8,0c0.2,0,0.5,0,0.6,0c0.2,0,0.4,0,0.6,0c0.2,0,0.5,0,0.8,0c0.6,0,1.2,0.2,1.7,0.4
				c0.5,0.2,0.9,0.4,1.2,0.7c0.4,0.4,0.8,0.9,1.1,1.6c0.4,0.7,0.6,1.4,0.8,2.1h0.4V76h-0.4c-0.1,0.6-0.3,1.1-0.4,1.6
				s-0.4,0.9-0.6,1.3c-0.3,0.4-0.6,0.7-1,0.9c-0.4,0.3-1,0.5-1.6,0.6c-0.3,0.1-0.6,0.1-1,0.1c-0.4,0-0.8,0.1-1.3,0.1
				c-0.4,0-0.8,0-1.1,0c-0.3,0-0.5,0-0.6,0c0-0.1,0-0.2,0-0.4c0-0.2,0-0.5,0-0.8c0-0.4,0-0.8,0-1.4c0-0.6,0-1.2,0-2.1
				c0-1.4,0-2.7,0-3.7c0-1.1,0.1-1.8,0.1-2.1c0.2,0,0.6-0.1,1-0.1c0.5,0,1,0,1.4,0c1.4,0,2.6,0.1,3.6,0.2c1,0.1,1.7,0.3,2,0.5
				c1.5,0.8,3.2,2.2,4.9,4.4l0.3-0.2l-2.2-5.3h-17.8v0.3c0.6,0.1,1.1,0.2,1.4,0.3c0.4,0.1,0.7,0.3,1,0.7c0.1,0.1,0.2,0.3,0.3,0.6
				c0.1,0.3,0.1,0.6,0.2,1c0,0.4,0.1,0.8,0.1,1.2c0,0.4,0,0.8,0,1.2v6.3c0,0.6,0,1.2,0,1.9c0,0.6,0,1.3,0,1.9c0,0.6,0,1.2,0,1.7
				c0,0.5,0,0.9,0,1.2c0,0.3,0,0.7,0,1c0,0.4-0.1,0.7-0.1,1c-0.1,0.3-0.1,0.6-0.2,0.9c-0.1,0.2-0.2,0.4-0.3,0.6
				c-0.3,0.3-0.7,0.6-1.1,0.8c-0.5,0.2-1,0.3-1.5,0.4v0.3h19.7l1.6-6.2L177.2,86.6z"/>
		</g>
		<g>
			<path class="st1" d="M112.7,66.3l-1.3-4.9l0,0c0,0,0,0,0,0l0,0c0-0.1,0-0.3,0.2-0.5c0.2-0.1,1.1-0.5,0.8-1.6
				c-0.1-0.3-0.2-0.5-0.2-0.5l-2.9-7.2c1.6-2.2,2.5-4.9,2.5-7.6v-4.6l-1.1,0.3v4.3c0,2.3-0.7,4.5-1.9,6.4l-0.4-1l-0.1-0.3
				c0,0,0,0,0,0s-0.7-1.6-1-3.6c0-0.1,0-0.2,0-0.3c0-0.1,0-0.2,0-0.2c0-0.1,0-0.2,0-0.3c0-0.1,0-0.3,0-0.4c0.3-2.5,0-4.4,0-4.4v0
				c-0.1-0.5-0.2-0.9-0.3-1.4l3.5-1l1.4-0.4l0-0.1V16.3c0-3.5-1.4-6.8-3.8-9.3s-5.8-3.8-9.3-3.8h-6.5c-3.5,0-6.8,1.4-9.3,3.8
				c-2.5,2.5-3.8,5.8-3.8,9.3v25.5l1.1-0.3V16.3c0-3.2,1.3-6.2,3.5-8.5c2.3-2.3,5.3-3.5,8.5-3.5h6.5c3.2,0,6.2,1.3,8.5,3.5
				c2.3,2.3,3.5,5.3,3.5,8.5V36l-4,1.1c-0.7-3-1.5-6.4-1.8-7.6l0,0c0,0,0-0.2-0.1-0.5c0,0,0,0,0,0l0,0c-0.3-0.9-0.9-2.7-1.9-3.9
				l-2.7-3.6c0,0-1.3-1.9-1.4-3.2c0,0-0.4-3-1.5-4.1l0,0c-0.1-0.2-0.3-0.4-0.4-0.6c0,0-0.2-0.3-0.7-0.6c-0.3-0.2-0.6-0.4-1.1-0.5
				c-0.3-0.1-0.7-0.1-1.2-0.1l-0.3-0.2c0,0,0-0.1-0.1-0.2c-0.1-0.1-0.3-0.1-0.7,0.1l-0.2-0.1c0,0-0.1-0.1-0.2-0.1
				c-0.1,0-0.3,0-0.5,0.3c0,0-0.1,0-0.2,0.1c0,0-0.1,0-0.2,0.1c-0.5,0.3-1.6,0.8-2.3,1.5c-0.2,0.2-0.3,0.3-0.4,0.5c0,0,0,0,0,0
				c0,0,0,0,0,0c0,0,0,0,0,0c-0.5-0.1-1.4-0.4-2.8-0.2c-2.3,0.3-3.2,0.9-3.2,0.9l0,0l0,0c0,0,0.3,0.2,0.9,0.2
				c3.2,0.3,3.7,0.6,4.7,1.2c0,0,0,0,0.1,0c-0.6,1.1,0,2.2,0,2.2c0.1,1.1,0.6,0.6,0.6,0.6l0.5,1.8c-0.4,3.5,0.4,3.3,0.4,3.3
				c-0.5,1.2,0.4,1.9,0.4,1.9c0,1.5,0.9,1.9,0.9,1.9c1.3,4.7,3.7,8.3,5.1,10.1c0.1,0.2,0.4,0.6,0.9,1.2L80.1,44c0,0,0,0,0,0
				c-0.7,0.2-1.1,0.3-1.1,0.3c0.1,3.3,1.5,6.5,3.8,8.9c2.5,2.5,5.8,3.8,9.3,3.8h6.5c3,0,5.8-1,8.1-2.8c0.7,2.7,1.5,5.9,1.6,6.1
				c0.3,0.5,0.5,0.6,0.9,0.7c0.4,0.1,0.9,0,1.3,1l5.1,13.1L112.7,66.3z M90.5,13.1C90.5,13.1,90.5,13.1,90.5,13.1
				c0.1-0.1,0.2-0.1,0.3-0.2c0,0,0,0,0,0c0.1,0,0.2-0.1,0.3-0.1c0,0,0.4-0.4,0.7-0.6c0,0,0.1,0,0.1-0.1c0.1,0,0.1-0.1,0.2-0.1
				c0,0,0,0,0,0.1l-1,0.9c0,0-0.3,0.2-0.1,0.4l0,0c0,0,0,0,0,0l1.6-1.2c0,0,0.1-0.1,0.1-0.1c0.1,0,0.2,0,0.2,0c0.1,0,0.2,0,0.2,0.1
				l0,0l0.3,0.3l0,0c0,0,0.1,0.1,0.2,0.2c0.1,0,0.3,0.1,0.4,0.1c0,0,0,0,0,0c0,0,0,0,0.1,0c0.1,0,0.2,0,0.3,0c0,0,0.1,0,0.2,0
				c0,0,0,0,0,0c0.1,0,0.1,0,0.2,0c0,0,0,0,0,0c0,0,0.1,0,0.1,0c0,0,0,0,0,0c0,0,0.1,0,0.1,0c0,0,0.1,0,0.2,0.1
				c0.1,0,0.1,0.1,0.2,0.1c0.3,0.2,0.7,0.5,1.1,1c0,0-0.1-0.1-0.3-0.2c-0.1-0.1-0.2-0.2-0.4-0.2c-0.2-0.1-0.4-0.2-0.6-0.2
				c-0.1,0-0.2,0-0.2,0c0,0,0,0-0.1,0c0,0-0.1-0.1-0.2-0.1c-0.2-0.1-0.4-0.1-0.7-0.1c0,0,0,0-0.1,0c0,0,0,0,0,0c0,0-0.1,0-0.2,0
				c-0.1,0-0.1,0-0.2,0.1c-0.1,0-0.2,0.1-0.3,0.2c-0.2,0.1-0.5,0.4-0.9,0.7c0,0-0.1,0.1-0.1,0.2c0,0,0,0.1,0,0.1c0,0,0,0,0,0
				c0,0,0,0,0,0c0,0,0.1,0,0.2,0c0,0,0.1,0,0.2-0.1c0.2-0.1,0.4-0.2,0.8-0.5c0,0,0.1,0,0.2,0c0.2,0,0.5,0.1,0.9,0.1
				c0.1,0,0.2,0,0.3,0c0.2,0,0.3,0,0.4-0.1l1,0.4c0,0,0.1,0.1,0.2,0.2c0.1,0,0.1,0.1,0.2,0.2c0.1,0.1,0.3,0.2,0.4,0.3
				c0.1,0,0.1,0.1,0.2,0.1c0.1,0,0.2,0.1,0.2,0l0,0l0.2,0.9c0.5,1.3,0.1,1.6-0.1,1.6c-0.2,0-0.2,0.2-0.3,0.4
				c-0.1,0.1-0.2,0.4-0.2,0.4c0,0,0-0.1,0-0.2c0,0,0,0,0,0c0,0,0,0,0,0c0-0.2,0-0.5,0.1-0.8c0,0,0,0,0-0.1v0c0,0,0-0.2-0.1-0.5
				c0-0.1-0.1-0.2-0.1-0.3c0-0.1-0.1-0.1-0.1-0.2c0,0,0-0.1-0.1-0.1c0,0,0,0,0,0c-0.1-0.1-0.3-0.3-0.5-0.3c0,0,0,0-0.1,0
				c-0.1,0-0.3-0.1-0.5-0.1c-0.1,0-0.2,0-0.3,0c-0.1,0-0.2,0-0.4,0c-0.1,0-0.3,0-0.4,0c0,0,0-0.1,0-0.1c0-0.1,0-0.1-0.2-0.2
				c0,0,0,0,0,0c0,0,0,0,0,0c0,0,0-0.1-0.1-0.2c-0.1-0.2-0.4-0.5-0.9-0.5c0,0-0.1,0-0.3,0c-0.1,0-0.2,0-0.3,0.1
				c-0.1,0-0.2,0.1-0.4,0.1c0,0-0.8,0.2-1.1,0.3c0,0-1.4,0-1.8-0.4l-0.4-0.3L89,14.5c0,0,0,0-0.2-0.1c0,0,0,0,0,0
				C89.2,14.1,89.9,13.5,90.5,13.1z M93.8,16.5c-0.1,0-0.2,0.1-0.2,0.1c-0.1,0-0.1,0-0.2,0c-0.3-0.1-0.5-0.3-0.5-0.7
				c0-0.3,0.1-0.5,0.3-0.6c0.1-0.1,0.2-0.1,0.3-0.1c0.3,0,0.5,0.2,0.6,0.4c0,0.1,0,0.2,0,0.3c0,0.1,0,0.2,0,0.3
				C94.1,16.3,93.9,16.4,93.8,16.5z M96.3,37.7c-0.4-0.5-0.7-0.9-0.7-0.9c-2.5-3.3-4.2-8.9-4.2-8.9c-1.1-0.3-1-2.2-1-2.2
				c-0.9-1.1,0.2-2.1,0.2-2.1c0.6,0.4,0.7-0.4,0.7-0.8c0.1-0.4,0-1.3,0-1.3c-0.7,2.2-1,1.3-1,1.3c-0.1,0.6-0.2,0.8-0.4,0.8
				c-0.1,0-0.3-0.1-0.3-0.2c0-0.1-0.1-0.8-0.1-1.3c0-0.5,0.1-1,0.1-1l-0.3-1.6c0.8,1.4,1.1-0.2,1.1-0.2c1,1,1.5,0,1.5,0
				c0.7,1,1,0.4,1,0.4c1,0.7,0.8,0.2,0.8,0.2c-0.1-0.2-0.2-0.3-0.3-0.4c0,0,0,0,0,0c-0.3-0.5-0.8-0.6-1-0.6
				c-0.3,0.1-0.4-0.1-0.5-0.2c-0.1-0.1-0.3,0-0.4,0.1c-0.2,0.1-0.4,0.4-0.6,0.1c-0.2-0.3-0.3-0.3-0.5-0.3c-0.2,0-0.4,0.5-0.6,0.6
				c-0.2,0.1-0.1-0.9-0.3-0.9c-0.2,0-0.1,0.1-0.6,0.2c-0.2,0-0.3-0.1-0.4-0.3l0,0c-0.4-0.7-0.2-1.2,0.1-1.5c0,0,0,0,0,0
				c0,0,0.1,0,0.1,0c0,0,0.1,0,0.1,0c0,0,0,0,0,0c0,0,0,0,0,0c0,0,0,0,0,0c0,0,0.2,0.1,0.5,0.1c0,0,0,0,0,0c0,0,0,0,0,0
				c0.4,0.1,1,0.2,1.5,0.1c0.1,0,0.3,0,0.4-0.1c0,0,0,0,0,0l0.5-0.1c0,0,0.1,0,0.1,0.1c0,0,0.1,0,0.2,0.1c0.1,0,0.2,0,0.3,0l0,0
				c0,0,0.8,0.5,1.1,0.6c0.4,0.2,0.8,0.2,0.8,0.2l0,0c0,0,0,0,0,0c0,0,0,0,0,0c0,0,0,0,0,0c0.1,0.1,0.3,0.2,0.6,0.2c0,0,0.2,0,0.3,0
				c0.1,0,0.2,0,0.5,0.2l0,0l0.2,0.1c0,0,0.1,0.2,0.3,0.4c0,0,0.1,0.1,0.1,0.1c0.1,0.1,0.2,0.1,0.3,0.1l0,0l0,0c0,0,0,0,0,0
				c0,0.1,0.2,0.4,0.2,0.6c0,0.2,0.1,0.4,0,0.8c-0.1,0.2-0.2,0.4-0.5,0.5c-0.5,0.1-0.5,0.2-0.6,0.5c-0.1,0.2-0.1,0.8-0.2,1
				c-0.1,0.2-0.5,0.7-0.7,0.8c-0.2,0.2-0.7,0.5-1.1,0.4c-0.4-0.1-0.5-0.1-0.7,0c-0.2,0.1-0.3,0.4-0.4,0.5c-0.2,0-0.3,0.1-0.4,0.4
				c-0.1,0.3-0.2,0.6-0.3,0.7c-0.1,0.1-0.2,0.3-0.2,0.6c0,0.3,0.2,1.3,0.3,1.7c0.2,0.4,0.1,0.8,0.1,0.8l0,0c0,0.2,0,0.5-0.1,0.7
				c-0.1,0.2-0.1,0.6,0.2,1.1c0,0,0,0,0,0s0,0.1,0.1,0.2c0.4,0.8,1.8,3.4,2.6,4l0.4,0.4c0,0,0.7,0.6,1.3,0.7c0,0,0,0,0.1,0
				c0.2,0,0.5,0.1,0.6,0.2c0.1,0.1,1.1,0.8,1.9,1.5c0.1,0.1,0.1,0.1,0.2,0.2c0.2,0.2,0.7,0.7,1.3,1.3c0.3,0.3,0.5,0.6,0.8,0.9
				c0.2,0.2,0.3,0.4,0.5,0.6c0.5,0.5,0.9,1,1.3,1.5c0.3,0.4,0.9,1.2,1.3,1.8l0,0c0.3,0.5,0.6,1.7,0,1.8c-0.4,0-1.3-0.5-1.3-0.5
				c-0.3-0.2-0.7-0.4-1-0.7c-0.9-0.7-1.9-1.6-2.6-2.4c-0.1-0.1-0.3-0.3-0.4-0.4c0,0,0,0,0,0c0,0-0.1-0.1-0.2-0.2
				c-0.1-0.1-0.2-0.2-0.3-0.3c0,0-0.1-0.1-0.1-0.1c-0.1-0.1-0.1-0.1-0.2-0.2c0,0,0,0,0,0c-0.2-0.2-0.4-0.4-0.5-0.6
				c-0.1-0.1-0.2-0.2-0.3-0.3c-0.1-0.1-0.2-0.2-0.3-0.3C97,38.7,96.6,38.2,96.3,37.7z M98.6,55.9h-6.5c-3.2,0-6.2-1.3-8.5-3.5
				c-1.8-1.8-3.2-4.5-3.5-7.2l17.7-4.7c1.2,1.3,2.9,3.1,5.2,4.8c0,0,0,0,0,0c0.5,0.4,0.9,0.7,1.2,1l0,0l0.4,0.3l1.1,3.7
				c0,0,0.3,1.2,0.7,2.7C104.2,54.9,101.5,55.9,98.6,55.9z"/>
			<path class="st1" d="M93.8,15.5c0,0,0,0.1,0,0.1c0,0.2-0.2,0.4-0.3,0.3c-0.1,0-0.2-0.1-0.2-0.3c0,0,0-0.1,0-0.1
				c0-0.1,0-0.1,0.1-0.1c0,0,0,0,0,0c0,0,0,0,0,0c-0.2,0.1-0.3,0.3-0.3,0.5c0,0,0,0,0,0c0,0,0,0,0,0c0,0.3,0.2,0.5,0.4,0.5
				c0.2,0,0.4-0.2,0.4-0.5c0,0,0,0,0,0c0,0,0,0,0,0C94,15.7,93.9,15.6,93.8,15.5z"/>
			<path class="st1" d="M94.6,14.5c0,0,1.8,0.8,2.4,1.3c0,0,0.4,0.3,0.1-0.2c0-0.1-0.1-0.2-0.2-0.3v0c0,0,0,0,0,0
				c-0.1-0.2-0.8-1.3-2.1-1.2c0,0,0,0,0,0.1c0,0,0.1,0.1,0.7,0.2c0,0,0.2,0.1,0.2,0.2c0,0-0.5-0.3-1.4-0.1c0,0,0,0,0,0
				C94.1,14.5,94.2,14.5,94.6,14.5z"/>
		</g>
	</g>
	<g>
		<path class="st0" d="M45.5,97.6H46v4.7h-0.5V97.6z"/>
		<path class="st0" d="M48.2,97.6h0.5l2.9,3.7v-3.7h0.5v4.7h-0.4l-3-3.8v3.8h-0.5V97.6z"/>
		<path class="st0" d="M58.4,98.1h-1.6v-0.5h3.7v0.5h-1.6v4.2h-0.5V98.1z"/>
		<path class="st0" d="M62.3,97.6h0.5v2.1h2.7v-2.1h0.5v4.7h-0.5v-2.1h-2.7v2.1h-0.5V97.6z"/>
		<path class="st0" d="M68.2,97.6h3.4V98h-2.9v1.6h2.5v0.5h-2.5v1.6h2.9v0.5h-3.4V97.6z"/>
		<path class="st0" d="M76.4,97.6h2c0.6,0,1,0.2,1.3,0.5c0.2,0.2,0.4,0.6,0.4,0.9v0c0,0.8-0.5,1.2-1.3,1.4l1.4,1.9h-0.6l-1.4-1.8
			h-1.3v1.8h-0.5V97.6z M78.3,99.9c0.7,0,1.2-0.4,1.2-1v0c0-0.6-0.4-0.9-1.2-0.9h-1.4v1.9H78.3z"/>
		<path class="st0" d="M82.1,97.6h0.5v4.7h-0.5V97.6z"/>
		<path class="st0" d="M84.4,97.6H85l1.7,4l1.7-4h0.6l-2,4.7h-0.5L84.4,97.6z"/>
		<path class="st0" d="M90.6,97.6H94V98h-2.9v1.6h2.5v0.5h-2.5v1.6h2.9v0.5h-3.4V97.6z"/>
		<path class="st0" d="M96,97.6h2c0.6,0,1,0.2,1.3,0.5c0.2,0.2,0.4,0.6,0.4,0.9v0c0,0.8-0.5,1.2-1.3,1.4l1.4,1.9h-0.6l-1.4-1.8h-1.3
			v1.8H96V97.6z M97.9,99.9c0.7,0,1.2-0.4,1.2-1v0c0-0.6-0.4-0.9-1.2-0.9h-1.4v1.9H97.9z"/>
		<path class="st0" d="M104.5,97.6h1.6c1.5,0,2.5,1,2.5,2.3v0c0,1.3-1,2.3-2.5,2.3h-1.6V97.6z M105,98.1v3.7h1.1
			c1.2,0,1.9-0.8,1.9-1.8v0c0-1-0.8-1.8-1.9-1.8H105z"/>
		<path class="st0" d="M110.6,97.6h0.5v4.7h-0.5V97.6z"/>
		<path class="st0" d="M113,101.6l0.3-0.4c0.5,0.4,1,0.7,1.6,0.7c0.6,0,1-0.3,1-0.8v0c0-0.4-0.2-0.7-1.2-0.9
			c-1.1-0.2-1.6-0.6-1.6-1.3v0c0-0.7,0.6-1.3,1.5-1.3c0.7,0,1.2,0.2,1.6,0.6l-0.3,0.4c-0.4-0.4-0.9-0.5-1.3-0.5c-0.6,0-1,0.3-1,0.8
			v0c0,0.4,0.2,0.7,1.3,0.9c1,0.2,1.5,0.6,1.5,1.3v0c0,0.8-0.7,1.3-1.6,1.3C114.2,102.3,113.5,102.1,113,101.6z"/>
		<path class="st0" d="M119.5,98.1H118v-0.5h3.7v0.5h-1.6v4.2h-0.5V98.1z"/>
		<path class="st0" d="M123.5,97.6h2c0.6,0,1,0.2,1.3,0.5c0.2,0.2,0.4,0.6,0.4,0.9v0c0,0.8-0.5,1.2-1.3,1.4l1.4,1.9h-0.6l-1.4-1.8
			H124v1.8h-0.5V97.6z M125.4,99.9c0.7,0,1.2-0.4,1.2-1v0c0-0.6-0.4-0.9-1.2-0.9H124v1.9H125.4z"/>
		<path class="st0" d="M129.2,97.6h0.5v4.7h-0.5V97.6z"/>
		<path class="st0" d="M131.7,99.9L131.7,99.9c0-1.3,1-2.4,2.4-2.4c0.8,0,1.4,0.3,1.8,0.7l-0.4,0.4c-0.4-0.4-0.8-0.6-1.5-0.6
			c-1,0-1.8,0.8-1.8,1.9v0c0,1.1,0.8,1.9,1.8,1.9c0.6,0,1.1-0.2,1.5-0.7l0.3,0.3c-0.5,0.5-1,0.8-1.9,0.8
			C132.7,102.3,131.7,101.3,131.7,99.9z"/>
		<path class="st0" d="M138.9,98.1h-1.6v-0.5h3.7v0.5h-1.6v4.2h-0.5V98.1z"/>
	</g>
</g>
</svg>
